# xmcd
#
# Track frame offsets:
#	150
#	16575
#	29737
#	38362
#	50665
#	60562
#	72000
#	84037
#	95965
#	110887
#	122212
#	130872
#
# Disc length: 1900 seconds
#
# Revision: 1
# Processed by: cddbd v1.5.2PL0 Copyright (c) Steve Scherf et al.
# Submitted via: audiograbber 1.83.01
#
DISCID=9d076a0c
DTITLE=Die Flippers - Die Flippers
DYEAR=1970
DGENRE=Schlager
TTITLE0=Sha La La I Love You
TTITLE1=Nur mit Dir allein
TTITLE2=Glücklich kann ich nur in Deinen Armen sein
TTITLE3=Wie ein Traum im Wind verweht
TTITLE4=Kleine Lunalei
TTITLE5=Heut ruft mein Herz nur nach Dir
TTITLE6=Weine nicht kleine Eva
TTITLE7=Das große Glück für uns begann
TTITLE8=Maria
TTITLE9=My Darling Du allein
TTITLE10=Jeden Tag in der Woche
TTITLE11=Hawaii Hawaii
EXTD=
EXTT0=
EXTT1=
EXTT2=
EXTT3=
EXTT4=
EXTT5=
EXTT6=
EXTT7=
EXTT8=
EXTT9=
EXTT10=
EXTT11=
PLAYORDER=
